<mxfile host="app.diagrams.net" modified="2024-06-25T02:11:17.863Z" agent="Mozilla/5.0 (Macintosh; Intel Mac OS X 10_15_7) AppleWebKit/537.36 (KHTML, like Gecko) Chrome/125.0.0.0 Safari/537.36" etag="My1A4XcTR9mzuEOzexOU" version="24.6.2" type="github">
  <diagram name="IAM" id="D8udispwGqIBE8XHiB6t">
    <mxGraphModel dx="1026" dy="684" grid="1" gridSize="10" guides="1" tooltips="1" connect="1" arrows="1" fold="1" page="1" pageScale="1" pageWidth="850" pageHeight="1100" math="0" shadow="0">
      <root>
        <mxCell id="0" />
        <mxCell id="1" parent="0" />
        <mxCell id="BuNx71DsrO6zCrrEtByI-1" value="&lt;font style=&quot;font-size: 20px;&quot;&gt;content-admin-role&lt;/font&gt;" style="sketch=0;outlineConnect=0;fontColor=#232F3E;gradientColor=none;fillColor=#DD344C;strokeColor=none;dashed=0;verticalLabelPosition=bottom;verticalAlign=top;align=center;html=1;fontSize=12;fontStyle=0;aspect=fixed;pointerEvents=1;shape=mxgraph.aws4.role;" vertex="1" parent="1">
          <mxGeometry x="440" y="287" width="88.64" height="50" as="geometry" />
        </mxCell>
        <mxCell id="BuNx71DsrO6zCrrEtByI-4" value="&lt;font style=&quot;font-size: 20px;&quot;&gt;sample-bucket&lt;/font&gt;" style="sketch=0;outlineConnect=0;fontColor=#232F3E;gradientColor=none;fillColor=#7AA116;strokeColor=none;dashed=0;verticalLabelPosition=bottom;verticalAlign=top;align=center;html=1;fontSize=12;fontStyle=0;aspect=fixed;pointerEvents=1;shape=mxgraph.aws4.bucket;" vertex="1" parent="1">
          <mxGeometry x="730" y="283" width="55.77" height="58" as="geometry" />
        </mxCell>
        <mxCell id="BuNx71DsrO6zCrrEtByI-5" value="" style="endArrow=classic;html=1;rounded=0;fillColor=#f8cecc;strokeColor=#b85450;strokeWidth=3;" edge="1" parent="1" source="BuNx71DsrO6zCrrEtByI-1" target="BuNx71DsrO6zCrrEtByI-4">
          <mxGeometry width="50" height="50" relative="1" as="geometry">
            <mxPoint x="510.644989174507" y="252.66909476110254" as="sourcePoint" />
            <mxPoint x="653.5453214018204" y="250.0006167661479" as="targetPoint" />
          </mxGeometry>
        </mxCell>
        <mxCell id="BuNx71DsrO6zCrrEtByI-6" value="EC2 instance contents" style="points=[[0,0],[0.25,0],[0.5,0],[0.75,0],[1,0],[1,0.25],[1,0.5],[1,0.75],[1,1],[0.75,1],[0.5,1],[0.25,1],[0,1],[0,0.75],[0,0.5],[0,0.25]];outlineConnect=0;gradientColor=none;html=1;whiteSpace=wrap;fontSize=12;fontStyle=0;container=1;pointerEvents=0;collapsible=0;recursiveResize=0;shape=mxgraph.aws4.group;grIcon=mxgraph.aws4.group_ec2_instance_contents;strokeColor=#D86613;fillColor=none;verticalAlign=top;align=left;spacingLeft=30;fontColor=#D86613;dashed=0;" vertex="1" parent="1">
          <mxGeometry x="150" y="80" width="160" height="160" as="geometry" />
        </mxCell>
        <mxCell id="BuNx71DsrO6zCrrEtByI-3" value="&lt;font style=&quot;font-size: 24px;&quot;&gt;Role-based access policy&lt;/font&gt;" style="sketch=0;outlineConnect=0;fontColor=#232F3E;gradientColor=none;fillColor=#DD344C;strokeColor=none;dashed=0;verticalLabelPosition=bottom;verticalAlign=top;align=center;html=1;fontSize=12;fontStyle=0;aspect=fixed;pointerEvents=1;shape=mxgraph.aws4.permissions;" vertex="1" parent="BuNx71DsrO6zCrrEtByI-6">
          <mxGeometry x="44" y="70" width="62" height="78" as="geometry" />
        </mxCell>
        <mxCell id="BuNx71DsrO6zCrrEtByI-11" style="edgeStyle=orthogonalEdgeStyle;rounded=0;orthogonalLoop=1;jettySize=auto;html=1;strokeWidth=2;fillColor=#fff2cc;strokeColor=#d6b656;" edge="1" parent="1" source="BuNx71DsrO6zCrrEtByI-17" target="BuNx71DsrO6zCrrEtByI-1">
          <mxGeometry relative="1" as="geometry">
            <mxPoint x="263.93667480797126" y="312" as="sourcePoint" />
          </mxGeometry>
        </mxCell>
        <mxCell id="BuNx71DsrO6zCrrEtByI-10" style="edgeStyle=orthogonalEdgeStyle;rounded=0;orthogonalLoop=1;jettySize=auto;html=1;strokeWidth=3;fillColor=#fff2cc;strokeColor=#d6b656;" edge="1" parent="1" source="BuNx71DsrO6zCrrEtByI-3" target="BuNx71DsrO6zCrrEtByI-17">
          <mxGeometry relative="1" as="geometry">
            <mxPoint x="225.0999999999999" y="287" as="targetPoint" />
          </mxGeometry>
        </mxCell>
        <mxCell id="BuNx71DsrO6zCrrEtByI-16" style="edgeStyle=orthogonalEdgeStyle;rounded=0;orthogonalLoop=1;jettySize=auto;html=1;fillColor=#dae8fc;strokeColor=#6c8ebf;strokeWidth=4;" edge="1" parent="1" source="BuNx71DsrO6zCrrEtByI-15" target="BuNx71DsrO6zCrrEtByI-4">
          <mxGeometry relative="1" as="geometry" />
        </mxCell>
        <mxCell id="BuNx71DsrO6zCrrEtByI-15" value="&lt;font style=&quot;font-size: 23px;&quot;&gt;Identity Access Policy&lt;/font&gt;" style="shape=umlActor;verticalLabelPosition=bottom;verticalAlign=top;html=1;outlineConnect=0;" vertex="1" parent="1">
          <mxGeometry x="193" y="430" width="30" height="50" as="geometry" />
        </mxCell>
        <mxCell id="BuNx71DsrO6zCrrEtByI-17" value="sts:assume-role" style="sketch=0;outlineConnect=0;fontColor=#232F3E;gradientColor=none;fillColor=#DD344C;strokeColor=none;dashed=0;verticalLabelPosition=bottom;verticalAlign=top;align=center;html=1;fontSize=12;fontStyle=0;aspect=fixed;pointerEvents=1;shape=mxgraph.aws4.sts_alternate;" vertex="1" parent="1">
          <mxGeometry x="193" y="273" width="62" height="78" as="geometry" />
        </mxCell>
        <mxCell id="BuNx71DsrO6zCrrEtByI-18" value="&lt;font style=&quot;font-size: 20px;&quot;&gt;1&lt;/font&gt;" style="ellipse;whiteSpace=wrap;html=1;aspect=fixed;" vertex="1" parent="1">
          <mxGeometry x="80" y="130" width="40" height="40" as="geometry" />
        </mxCell>
        <mxCell id="BuNx71DsrO6zCrrEtByI-19" value="&lt;font style=&quot;font-size: 20px;&quot;&gt;2&lt;/font&gt;" style="ellipse;whiteSpace=wrap;html=1;aspect=fixed;" vertex="1" parent="1">
          <mxGeometry x="80" y="430" width="40" height="40" as="geometry" />
        </mxCell>
      </root>
    </mxGraphModel>
  </diagram>
</mxfile>
